<svg width="150" height="50" viewBox="0 0 150 50" fill="none" xmlns="http://www.w3.org/2000/svg">
<g clip-path="url(#clip0_23_784)">
<path d="M43.879 37.899C42.854 37.5322 42.6598 37.2876 42.6598 36.8669C42.6598 36.4461 42.9547 36.1116 43.656 36.1116C44.1703 36.1116 44.5119 36.2807 44.886 36.5899L45.2528 36.1404C44.8212 35.7951 44.3825 35.5938 43.692 35.5938C42.7354 35.5938 42.088 36.0829 42.088 36.9028C42.088 37.6437 42.462 38.0033 43.5697 38.3989C44.5084 38.737 44.7925 39.0067 44.7925 39.4814C44.7925 40.0244 44.3681 40.3625 43.6884 40.3625C43.1597 40.3625 42.7138 40.118 42.3254 39.7475L41.9478 40.1719C42.3505 40.5819 42.9727 40.884 43.6704 40.884C44.7385 40.884 45.3679 40.2582 45.3679 39.4562C45.3679 38.6542 45.019 38.3126 43.8826 37.9026L43.879 37.899Z" fill="#004289"/>
<path d="M47.6913 36.8783C47.1914 36.8783 46.7383 37.0006 46.4002 37.184L46.6088 37.6299C46.9217 37.4465 47.2526 37.335 47.6554 37.335C48.2164 37.335 48.4897 37.6119 48.4897 38.1874V38.6405C48.2632 38.5146 47.9143 38.4175 47.5295 38.4175C46.7707 38.4175 46.0586 38.7844 46.0586 39.6475C46.0586 40.5753 46.688 40.8774 47.2849 40.8774C47.8388 40.8774 48.2164 40.6185 48.4897 40.3272V40.7983H49.0364V38.1154C49.0364 37.2235 48.5185 36.8711 47.6913 36.8711V36.8783ZM48.4861 39.8597C48.2524 40.1797 47.8783 40.4351 47.382 40.4351C46.9109 40.4351 46.5944 40.1869 46.5944 39.6151C46.5944 39.1332 46.9325 38.8599 47.4971 38.8599C47.9647 38.8599 48.2344 38.9462 48.4861 39.0828V39.8633V39.8597Z" fill="#004289"/>
<path d="M54.553 38.5493V40.8006H55.0996V38.4593C55.0996 37.3373 54.6105 36.877 53.8265 36.877C53.2007 36.877 52.8878 37.1683 52.6613 37.5351C52.4779 37.1683 52.1506 36.877 51.6075 36.877C51.1544 36.877 50.8307 37.0963 50.6329 37.4272V36.9597H50.0791V40.8042H50.6329V38.5528C50.6329 37.7005 50.9602 37.3517 51.4889 37.3517C52.0175 37.3517 52.316 37.6717 52.316 38.5528V40.8042H52.8663V38.5528C52.8663 37.7005 53.2007 37.3517 53.7222 37.3517C54.276 37.3517 54.5494 37.6717 54.5494 38.5528L54.553 38.5493Z" fill="#004289"/>
<path d="M57.304 38.5653C56.653 38.2704 56.4588 38.1445 56.4588 37.8172C56.4588 37.5367 56.689 37.3425 57.0954 37.3425C57.5018 37.3425 57.7535 37.4504 58.052 37.6878L58.3577 37.2814C58.0664 37.0404 57.6564 36.875 57.1313 36.875C56.4301 36.875 55.9302 37.2706 55.9302 37.8532C55.9302 38.4682 56.2502 38.7019 57.0235 39.0328C57.7032 39.3241 57.9297 39.5003 57.9297 39.8168C57.9297 40.1908 57.6816 40.4102 57.1529 40.4102C56.7717 40.4102 56.4121 40.2556 56.1064 39.9858L55.7827 40.385C56.1495 40.6799 56.6099 40.8777 57.1385 40.8777C57.8039 40.8777 58.4548 40.5505 58.4548 39.7916C58.4548 39.1047 58.0304 38.8926 57.3004 38.5617L57.304 38.5653Z" fill="#004289"/>
<path d="M61.6628 39.2047C61.6628 40.0463 61.242 40.4023 60.7134 40.4023C60.0948 40.4023 59.8035 40.0319 59.8035 39.2047V36.957H59.2568V39.2983C59.2568 40.4023 59.7927 40.8806 60.6019 40.8806C61.0874 40.8806 61.4434 40.6541 61.6628 40.3304V40.8015H62.213V36.957H61.6628V39.2047Z" fill="#004289"/>
<path d="M66.097 40.8006V38.4593C66.097 37.3517 65.5611 36.877 64.7484 36.877C64.2665 36.877 63.9068 37.1035 63.691 37.4272V36.9597H63.1372V40.8042H63.691V38.5528C63.691 37.7113 64.1046 37.3517 64.6369 37.3517C65.2519 37.3517 65.5468 37.7257 65.5468 38.5528V40.8042H66.097V40.8006Z" fill="#004289"/>
<path d="M67.8271 41.7948L68.0033 42.212C69.4311 42.1688 69.9489 41.6114 69.9489 40.4534V36.9541H69.3987V37.3857C69.129 37.0764 68.7981 36.875 68.3162 36.875C67.5106 36.875 66.8633 37.5763 66.8633 38.9393C66.8633 40.3023 67.4747 40.8777 68.2407 40.8777C68.7622 40.8777 69.129 40.6188 69.3987 40.3275V40.5253C69.3987 41.4208 69.1074 41.7588 67.8235 41.7912L67.8271 41.7948ZM68.3845 40.403C67.7768 40.403 67.4099 39.8995 67.4099 38.9321C67.4099 37.9 67.7228 37.3497 68.363 37.3497C68.8197 37.3497 69.1901 37.6051 69.4023 37.9251V39.8492C69.1326 40.1872 68.7945 40.403 68.3845 40.403Z" fill="#004289"/>
<path d="M76.0123 38.2021C76.0123 36.4434 75.0197 35.6738 73.6747 35.6738H72.3188V40.8022H73.574C74.9442 40.8022 76.0123 40.0614 76.0123 38.2021ZM72.8907 36.1917H73.6315C74.8111 36.1917 75.4405 36.911 75.4405 38.22C75.4405 39.6945 74.75 40.2807 73.6459 40.2807H72.8907V36.1917Z" fill="#004289"/>
<path d="M77.476 37.4311V36.9564H76.9258V40.8009H77.476V38.5424C77.476 37.8087 77.7781 37.3808 78.314 37.3808C78.5693 37.3808 78.7347 37.4383 78.8894 37.5282L79.0261 36.9744C78.8966 36.9168 78.7132 36.8809 78.4255 36.8809C78.0119 36.8809 77.6486 37.129 77.476 37.4347V37.4311Z" fill="#004289"/>
<path d="M82.3129 40.434L82.054 40.0385C81.7015 40.2722 81.439 40.4053 80.9894 40.4053C80.3637 40.4053 79.9717 39.8838 79.9213 39.0674H82.4819C82.4999 38.9775 82.5071 38.8984 82.5071 38.7689C82.5071 37.6721 81.9605 36.8809 80.9571 36.8809C80.0436 36.8809 79.3711 37.6397 79.3711 38.8588C79.3711 40.3729 80.227 40.8836 80.9319 40.8836C81.5109 40.8836 81.849 40.7289 82.3129 40.4376V40.434ZM80.9571 37.352C81.6296 37.352 81.9533 37.8734 81.9964 38.6179H79.9213C79.9861 37.7584 80.3853 37.352 80.9571 37.352Z" fill="#004289"/>
<path d="M84.3416 40.8813C84.8919 40.8813 85.2695 40.6224 85.5392 40.3311V40.8022H86.0895V38.1193C86.0895 37.2274 85.5716 36.875 84.7444 36.875C84.2445 36.875 83.7914 36.9973 83.4533 37.1807L83.6583 37.6266C83.9748 37.4432 84.3021 37.3317 84.7049 37.3317C85.2695 37.3317 85.5392 37.6087 85.5392 38.1841V38.6372C85.3127 38.5113 84.9674 38.4142 84.5826 38.4142C83.8202 38.4142 83.1045 38.7811 83.1045 39.6442C83.1045 40.572 83.7374 40.8741 84.338 40.8741L84.3416 40.8813ZM84.5538 38.8566C85.0213 38.8566 85.2947 38.9429 85.5428 39.0796V39.86C85.3091 40.18 84.935 40.4354 84.4387 40.4354C83.9712 40.4354 83.6511 40.1872 83.6511 39.6154C83.6511 39.1335 83.9928 38.8602 84.5538 38.8602V38.8566Z" fill="#004289"/>
<path d="M91.606 38.5493V40.8006H92.1562V38.4593C92.1562 37.3373 91.6671 36.877 90.8831 36.877C90.2609 36.877 89.9444 37.1683 89.7215 37.5351C89.5381 37.1683 89.2108 36.877 88.6677 36.877C88.211 36.877 87.8909 37.0963 87.6931 37.4272V36.9597H87.1465V40.8042H87.6931V38.5528C87.6931 37.7005 88.024 37.3517 88.5527 37.3517C89.0813 37.3517 89.3834 37.6717 89.3834 38.5528V40.8042H89.9301V38.5528C89.9301 37.7005 90.2645 37.3517 90.7896 37.3517C91.3434 37.3517 91.6167 37.6717 91.6167 38.5528L91.606 38.5493Z" fill="#004289"/>
<path d="M43.879 45.5263C42.8504 45.1594 42.6634 44.9185 42.6634 44.4941C42.6634 44.0698 42.9583 43.7425 43.6596 43.7425C44.1739 43.7425 44.5191 43.9079 44.8896 44.2172L45.2564 43.7713C44.8248 43.4296 44.3825 43.2246 43.6956 43.2246C42.7354 43.2246 42.0916 43.7065 42.0916 44.5337C42.0916 45.2745 42.4656 45.6306 43.5733 46.0262C44.512 46.3678 44.7961 46.6339 44.7961 47.1123C44.7961 47.6517 44.3717 47.9898 43.6884 47.9898C43.1597 47.9898 42.7138 47.7452 42.3254 47.3748L41.9478 47.7992C42.3505 48.2091 42.9727 48.5076 43.6704 48.5076C44.7385 48.5076 45.3643 47.8855 45.3643 47.0799C45.3643 46.2743 45.0154 45.9363 43.8826 45.5263H43.879Z" fill="#004289"/>
<path d="M47.6981 44.9803C48.0865 44.9803 48.3419 45.1169 48.6188 45.3687L48.9497 44.9587C48.6476 44.6926 48.2484 44.502 47.7341 44.502C46.9285 44.502 46.0762 45.1025 46.0762 46.5231C46.0762 47.8645 46.8494 48.5047 47.6945 48.5047C48.234 48.5047 48.608 48.2997 48.9317 47.9688L48.6008 47.62C48.3383 47.8753 48.0901 48.0264 47.7161 48.0264C47.0364 48.0264 46.63 47.4186 46.63 46.4728C46.63 45.5269 47.0939 44.9731 47.6945 44.9731L47.6981 44.9803Z" fill="#004289"/>
<path d="M51.2982 44.5051C50.8163 44.5051 50.453 44.7317 50.2337 45.0554V43.25H49.687V48.4359H50.2337V46.1846C50.2337 45.3431 50.6544 44.9834 51.1867 44.9834C51.8053 44.9834 52.0966 45.3539 52.0966 46.1846V48.4359H52.6468V46.0875C52.6468 44.9834 52.1109 44.5051 51.2982 44.5051Z" fill="#004289"/>
<path d="M55.0994 44.5059C54.1644 44.5059 53.4199 45.2071 53.4199 46.5126C53.4199 47.8181 54.1356 48.5122 55.0706 48.5122C56.0057 48.5122 56.7573 47.7893 56.7573 46.4838C56.7573 45.1784 56.0345 44.5059 55.0994 44.5059ZM55.0886 48.0339C54.4197 48.0339 53.9702 47.5088 53.9702 46.4982C53.9702 45.4877 54.4197 44.9842 55.0886 44.9842C55.7575 44.9842 56.2071 45.4877 56.2071 46.4982C56.2071 47.5088 55.754 48.0339 55.0886 48.0339Z" fill="#004289"/>
<path d="M58.1347 43.2461H57.5845V48.432H58.1347V43.2461Z" fill="#004289"/>
<path d="M60.6487 44.5059C60.1488 44.5059 59.6956 44.6317 59.3612 44.8151L59.5662 45.2647C59.8827 45.0813 60.2135 44.9698 60.6163 44.9698C61.1773 44.9698 61.4507 45.2503 61.4507 45.8185V46.2753C61.2241 46.1494 60.8788 46.0523 60.494 46.0523C59.7316 46.0523 59.0195 46.4191 59.0195 47.2858C59.0195 48.2137 59.6489 48.5122 60.2495 48.5122C60.7997 48.5122 61.1773 48.2568 61.4507 47.9655V48.4367H62.0009V45.7574C62.0009 44.8583 61.4794 44.5095 60.6523 44.5095L60.6487 44.5059ZM61.4471 47.4872C61.2169 47.8037 60.8357 48.0626 60.343 48.0626C59.8755 48.0626 59.559 47.8145 59.559 47.2427C59.559 46.7572 59.897 46.491 60.4617 46.491C60.9292 46.491 61.1989 46.5702 61.4471 46.7104V47.4872Z" fill="#004289"/>
<path d="M63.5942 45.0627V44.5808H63.0439V48.4289H63.5942V46.1703C63.5942 45.4403 63.8891 45.0051 64.4285 45.0051C64.6875 45.0051 64.8529 45.0627 65.0075 45.1526L65.1478 44.5951C65.0147 44.5376 64.8349 44.498 64.5472 44.498C64.1372 44.498 63.7668 44.7462 63.5978 45.0591L63.5942 45.0627Z" fill="#004289"/>
<path d="M67.2553 46.1961C66.6044 45.9012 66.4066 45.7682 66.4066 45.4481C66.4066 45.1712 66.6403 44.9734 67.0431 44.9734C67.4459 44.9734 67.7049 45.0849 68.0034 45.3186L68.309 44.9158C68.0141 44.6749 67.6078 44.5059 67.0791 44.5059C66.3814 44.5059 65.8743 44.9015 65.8743 45.4877C65.8743 46.0739 66.198 46.3364 66.9676 46.6637C67.6473 46.955 67.8739 47.1348 67.8739 47.4477C67.8739 47.8253 67.6257 48.0411 67.1007 48.0411C66.7159 48.0411 66.3598 47.8864 66.0505 47.6167L65.7305 48.0195C66.0973 48.3144 66.5576 48.5086 67.0863 48.5086C67.7516 48.5086 68.4026 48.1777 68.4026 47.4261C68.4026 46.7356 67.9782 46.527 67.2517 46.1961H67.2553Z" fill="#004289"/>
<path d="M70.9126 44.5051C70.4235 44.5051 70.0675 44.7317 69.8481 45.0554V43.25H69.2979V48.4359H69.8481V46.1846C69.8481 45.3431 70.2653 44.9834 70.8011 44.9834C71.4161 44.9834 71.7074 45.3539 71.7074 46.1846V48.4359H72.2576V46.0875C72.2576 44.9834 71.7254 44.5051 70.9126 44.5051Z" fill="#004289"/>
<path d="M73.8904 44.5801H73.3438V48.4282H73.8904V44.5801Z" fill="#004289"/>
<path d="M73.6282 43.1133C73.4052 43.1133 73.229 43.2895 73.229 43.5125C73.229 43.7354 73.4052 43.9009 73.6282 43.9009C73.8332 43.9009 74.0094 43.7211 74.0094 43.5125C74.0094 43.2895 73.8332 43.1133 73.6282 43.1133Z" fill="#004289"/>
<path d="M76.7063 44.5059C76.1884 44.5059 75.8216 44.7648 75.5483 45.0561V44.585H74.998V49.8464H75.5483V48.0015C75.818 48.3072 76.1489 48.5122 76.6344 48.5122C77.4364 48.5122 78.0837 47.8073 78.0837 46.4479C78.0837 45.0885 77.4723 44.5059 76.7063 44.5059ZM76.5876 48.0339C76.1345 48.0339 75.7605 47.7785 75.5483 47.4549V45.5344C75.818 45.2 76.1561 44.9806 76.5661 44.9806C77.1774 44.9806 77.5443 45.4841 77.5443 46.4515C77.5443 47.4836 77.2278 48.0303 76.5912 48.0303L76.5876 48.0339Z" fill="#004289"/>
<path d="M80.9932 43.8226H83.4315V43.3047H80.4214V48.4331H80.9932V46.0415H82.3994V45.5236H80.9932V43.8226Z" fill="#004289"/>
<path d="M85.1001 44.5059C84.165 44.5059 83.417 45.2071 83.417 46.5126C83.417 47.8181 84.1363 48.5122 85.0713 48.5122C86.0064 48.5122 86.758 47.7893 86.758 46.4838C86.758 45.1784 86.0423 44.5059 85.1001 44.5059ZM85.0893 48.0339C84.4204 48.0339 83.978 47.5088 83.978 46.4982C83.978 45.4877 84.424 44.9842 85.0893 44.9842C85.7546 44.9842 86.2114 45.4877 86.2114 46.4982C86.2114 47.5088 85.7582 48.0339 85.0893 48.0339Z" fill="#004289"/>
<path d="M89.7897 46.8314C89.7897 47.6729 89.3762 48.0326 88.8403 48.0326C88.2253 48.0326 87.9304 47.6621 87.9304 46.8314V44.5801H87.3838V46.9249C87.3838 48.029 87.9196 48.5073 88.7324 48.5073C89.2107 48.5073 89.5704 48.2843 89.7897 47.9606V48.4318H90.3436V44.5837H89.7897V46.835V46.8314Z" fill="#004289"/>
<path d="M92.8758 44.5056C92.3939 44.5056 92.0343 44.7321 91.8149 45.0558V44.5847H91.2646V48.4328H91.8149V46.1814C91.8149 45.3399 92.2321 44.9803 92.7679 44.9803C93.3829 44.9803 93.6742 45.3507 93.6742 46.1814V48.4328H94.2244V46.0843C94.2244 44.9803 93.6886 44.502 92.8758 44.502V44.5056Z" fill="#004289"/>
<path d="M97.5291 45.0191C97.2557 44.7098 96.9285 44.5012 96.443 44.5012C95.6374 44.5012 94.9937 45.2025 94.9937 46.5691C94.9937 47.9357 95.6014 48.5075 96.371 48.5075C96.8925 48.5075 97.2557 48.2522 97.5255 47.9609V48.432H98.0757V43.2461H97.5255V45.0191H97.5291ZM97.5291 47.479C97.2557 47.8135 96.9213 48.0328 96.5113 48.0328C95.9035 48.0328 95.5367 47.5293 95.5367 46.5619C95.5367 45.5262 95.8496 44.9795 96.4897 44.9795C96.9429 44.9795 97.3133 45.2349 97.5291 45.5585V47.4754V47.479Z" fill="#004289"/>
<path d="M100.406 44.5059C99.9101 44.5059 99.4569 44.6317 99.1189 44.8151L99.3203 45.2647C99.6367 45.0813 99.9676 44.9698 100.37 44.9698C100.931 44.9698 101.201 45.2503 101.201 45.8185V46.2753C100.975 46.1494 100.629 46.0523 100.241 46.0523C99.4821 46.0523 98.77 46.4191 98.77 47.2858C98.77 48.2137 99.403 48.5122 100.004 48.5122C100.554 48.5122 100.931 48.2568 101.201 47.9655V48.4367H101.751V45.7574C101.751 44.8583 101.234 44.5095 100.403 44.5095L100.406 44.5059ZM101.205 47.4872C100.971 47.8037 100.601 48.0626 100.097 48.0626C99.6331 48.0626 99.3203 47.8145 99.3203 47.2427C99.3203 46.7572 99.6547 46.491 100.219 46.491C100.687 46.491 100.96 46.5702 101.205 46.7104V47.4872Z" fill="#004289"/>
<path d="M103.507 43.2461H102.953V44.5803H102.478V45.0443H102.953V47.6372C102.953 48.2738 103.212 48.504 103.69 48.504C103.978 48.504 104.183 48.4608 104.395 48.3745L104.434 47.8998C104.258 47.9717 104.114 48.0077 103.891 48.0077C103.6 48.0077 103.507 47.889 103.507 47.5473V45.0443H104.46V44.5803H103.507V43.2461Z" fill="#004289"/>
<path d="M105.707 43.1133C105.481 43.1133 105.301 43.2895 105.301 43.5125C105.301 43.7354 105.481 43.9009 105.707 43.9009C105.912 43.9009 106.085 43.7211 106.085 43.5125C106.085 43.2895 105.909 43.1133 105.707 43.1133Z" fill="#004289"/>
<path d="M105.97 44.5801H105.419V48.4282H105.97V44.5801Z" fill="#004289"/>
<path d="M108.48 44.5059C107.545 44.5059 106.797 45.2071 106.797 46.5126C106.797 47.8181 107.513 48.5122 108.451 48.5122C109.39 48.5122 110.134 47.7893 110.134 46.4838C110.134 45.1784 109.415 44.5059 108.48 44.5059ZM108.466 48.0339C107.8 48.0339 107.351 47.5088 107.351 46.4982C107.351 45.4877 107.8 44.9842 108.466 44.9842C109.131 44.9842 109.588 45.4877 109.588 46.4982C109.588 47.5088 109.135 48.0339 108.466 48.0339Z" fill="#004289"/>
<path d="M112.541 44.5056C112.059 44.5056 111.699 44.7321 111.476 45.0558V44.5847H110.926V48.4328H111.476V46.1814C111.476 45.3399 111.893 44.9803 112.429 44.9803C113.044 44.9803 113.339 45.3507 113.339 46.1814V48.4328H113.886V46.0843C113.886 44.9803 113.35 44.502 112.541 44.502V44.5056Z" fill="#004289"/>
<path d="M63.1051 25.5762C60.8969 25.5798 59.0771 27.306 59.0771 29.471C59.0771 31.636 60.8969 33.3443 63.1051 33.3515C65.3348 33.3443 67.1366 31.6144 67.1366 29.471C67.1366 27.3276 65.3348 25.5798 63.1051 25.5762ZM63.0511 31.5749C61.8967 31.5749 61.0264 30.6326 61.0264 29.471C61.0264 28.3094 61.9578 27.3492 63.1086 27.3492C64.2595 27.3492 65.1586 28.2914 65.1586 29.471C65.1586 30.6506 64.2163 31.5749 63.0547 31.5749H63.0511Z" fill="#004289"/>
<path d="M44.6234 22.8975C45.2384 23.5052 45.9433 24.0375 46.6374 24.3791L46.7093 24.4187L47.8997 23.0125L47.7846 22.9478C46.6554 22.3364 45.7707 21.5632 45.1916 20.5886C44.6162 19.6284 44.3213 18.5135 44.3213 17.1793V15.9277H42.1923V17.0462C42.1923 18.4919 41.865 19.6284 41.25 20.6246C40.5631 21.7286 39.5454 22.6169 38.2435 23.4405L38.1284 23.5124L39.4195 24.8503L39.4914 24.8107C40.2611 24.3935 41.0774 23.7498 41.7859 23.0305C42.4009 22.4012 42.9331 21.7286 43.2568 21.0921C43.5697 21.7179 44.048 22.3544 44.6234 22.901V22.8975Z" fill="#004289"/>
<path d="M42.3184 32.4324H51.2301V26.3438H42.3184V32.4324ZM44.3215 28.0628H49.2269V30.7133H44.3215V28.0628Z" fill="#004289"/>
<path d="M72.0312 32.4324H82.1082V26.3438H72.0312V32.4324ZM74.0128 28.0628H80.1302V30.7133H74.0128V28.0628Z" fill="#004289"/>
<path d="M51.2658 15.5684H49.2842V25.6453H51.2658V21.1859H53.5854V19.3949H51.2658V15.5684Z" fill="#004289"/>
<path d="M92.3504 23.4127C93.0013 23.9773 93.7458 24.4521 94.4471 24.7577L94.519 24.7901L95.5907 23.3408L95.4756 23.2832C94.4543 22.7618 93.5444 22.1144 92.8899 21.3232C92.2245 20.5177 91.8289 19.5466 91.8289 18.3778V18.0362H94.7779V16.3027H86.7725V18.0362H89.7179V18.4533C89.7179 19.5179 89.3654 20.5105 88.7792 21.37C88.0923 22.4021 87.0889 23.2329 86.1143 23.7723L85.9849 23.8407L87.3011 25.2037L87.3731 25.1677C88.0815 24.7649 88.8655 24.1572 89.5345 23.4738C90.0703 22.9128 90.5522 22.3194 90.8471 21.726C91.2032 22.3014 91.7498 22.8769 92.354 23.4127H92.3504Z" fill="#004289"/>
<path d="M106.682 28.1019H113.886V32.4283H115.885V26.3828H106.682V28.1019Z" fill="#004289"/>
<path d="M111.652 21.1714C111.652 20.2183 111.224 19.3408 110.591 18.6719H112.569V16.9564H108.793V15.0684H106.646V16.9564H102.78V18.6719H104.801C104.182 19.3408 103.754 20.2111 103.754 21.1714C103.754 23.2968 105.506 25.023 107.696 25.0302C109.886 25.023 111.648 23.2968 111.652 21.1714ZM105.664 21.0922C105.664 19.9162 106.657 18.92 107.696 18.92C108.735 18.92 109.724 19.9198 109.728 21.0922C109.728 22.2503 108.735 23.25 107.696 23.2536C106.653 23.25 105.668 22.2503 105.664 21.0922Z" fill="#004289"/>
<path d="M115.885 15.5684H113.907V25.6813H115.885V21.8224H118.212V20.0314H115.885V15.5684Z" fill="#004289"/>
<path d="M99.101 15.5684H97.123V25.6813H99.101V21.1859H101.424V19.3949H99.101V15.5684Z" fill="#004289"/>
<path d="M65.5256 18.5677H62.4111V20.3407H65.5256V26.0014H67.5072V15.5684H65.5256V18.5677Z" fill="#004289"/>
<path d="M60.4939 23.16C61.1125 23.7642 61.8354 24.2964 62.5259 24.6561L62.6014 24.6992L63.7918 23.293L63.6767 23.2283C62.5474 22.6349 61.6807 21.8653 61.0981 20.9051C60.5083 19.952 60.2134 18.794 60.2134 17.4598V15.9277H58.0808V17.3303C58.0808 18.776 57.7571 19.9089 57.1565 20.8871C56.4732 22.0092 55.4339 22.9046 54.132 23.721L54.0205 23.7929L55.3188 25.1344L55.3835 25.0912C56.1495 24.6704 56.9479 24.0627 57.6564 23.3686C58.2966 22.732 58.8288 22.0379 59.1525 21.3726C59.4582 21.9804 59.9257 22.599 60.4939 23.1636V23.16Z" fill="#004289"/>
<path d="M94.8538 25.5762C92.6456 25.5798 90.8259 27.306 90.8223 29.471C90.8259 31.6144 92.642 33.3443 94.8538 33.3515C97.0799 33.3443 98.8853 31.6144 98.8853 29.471C98.8853 27.3276 97.0799 25.5798 94.8538 25.5762ZM94.7962 31.5749C93.6454 31.5749 92.7679 30.6326 92.7679 29.471C92.7679 28.3094 93.6957 27.3492 94.8538 27.3492C96.0118 27.3492 96.9001 28.2914 96.9037 29.471C96.9037 30.629 95.9578 31.5749 94.7962 31.5749Z" fill="#004289"/>
<path d="M74.4443 21.3475H76.4259V16.2012H71.0781V17.913H74.4443V21.3475Z" fill="#004289"/>
<path d="M80.3929 21.3475H82.378V16.2012H77.0303V17.913H80.3929V21.3475Z" fill="#004289"/>
<path d="M130.904 20.1249H129.238V15.8489H127.365V31.9965H129.238V22.067H130.904V32.428H132.846V15.5684H130.904V20.1249Z" fill="#004289"/>
<path d="M124.617 22.3588C124.171 21.3841 123.987 20.2945 123.987 18.9566V18.3201H126.235V16.5039H119.704V18.3201H122.024V18.9926C122.024 20.2585 121.858 21.2942 121.459 22.2545C120.995 23.3585 120.215 24.3511 118.971 25.4157L118.884 25.4948L120.114 26.7139L120.19 26.6564C120.808 26.1997 121.456 25.5379 121.995 24.8546C122.452 24.2792 122.837 23.6822 123.078 23.1571C123.326 23.6678 123.714 24.254 124.167 24.8007C124.692 25.4408 125.286 26.0486 125.854 26.4118L125.93 26.4622L126.965 25.225L126.883 25.1495C125.768 24.1785 125.077 23.3118 124.624 22.3552L124.617 22.3588Z" fill="#004289"/>
<path d="M69.4204 23.7422H75.9981V25.6626H78.1451V23.7422H84.8272V22.0195H69.4204V23.7422Z" fill="#004289"/>
<path d="M144.127 23.1933H137.431V18.0973H142.53V16.3027H135.424V24.934H144.127V23.1933Z" fill="#004289"/>
<path d="M140.34 27.0547H138.337V32.4276H147.705V30.6582H140.34V27.0547Z" fill="#004289"/>
<path d="M147.659 20.2361V15.5645H145.681V28.0042H147.659V22.0271H150V20.2361H147.659Z" fill="#004289"/>
<path d="M42.0087 10.3647L36.8767 8.23923L42.0087 6.11379L41.0953 3.91642L35.9669 6.04186L38.0923 0.909876L35.8913 0L33.7695 5.13199L31.6441 0L29.4431 0.909876L31.5685 6.04186L26.4401 3.91642L25.5303 6.11379L30.6587 8.23923L25.5303 10.3647L26.4401 12.562L31.5685 10.4366L29.4431 15.5686L31.6441 16.4785L33.7695 11.3501L35.8913 16.4785L38.0923 15.565L35.9669 10.4366L41.0953 12.562L42.0087 10.3647Z" fill="#009FE3"/>
<path d="M8.80409 24.6815H12.217V15.5684H0.546875V18.6396H8.80409V24.6815Z" fill="#009FE3"/>
<path d="M22.1176 24.6815H25.5305V15.5684H13.8604V18.6396H22.1176V24.6815Z" fill="#009FE3"/>
<path d="M0 29.3955H22.1175V34.0887H25.5305V26.3242H0V29.3955Z" fill="#009FE3"/>
<path d="M8.25732 48.4314H25.5306V35.668H8.25732V48.4314ZM11.6667 38.7428H22.1176V45.3637H11.6667V38.7428Z" fill="#009FE3"/>
</g>
<defs>
<clipPath id="clip0_23_784">
<rect width="150" height="49.8418" fill="white"/>
</clipPath>
</defs>
</svg>
