<svg width="151" height="50" viewBox="0 0 151 50" fill="none" xmlns="http://www.w3.org/2000/svg">
<g clip-path="url(#clip0_16_292)">
<path d="M44.0184 38.0186C42.9902 37.6506 42.7954 37.4053 42.7954 36.9832C42.7954 36.5611 43.0912 36.2256 43.7947 36.2256C44.3107 36.2256 44.6534 36.3951 45.0286 36.7054L45.3966 36.2544C44.9637 35.9081 44.5235 35.7061 43.8308 35.7061C42.8712 35.7061 42.2218 36.1967 42.2218 37.0193C42.2218 37.7625 42.597 38.1233 43.7082 38.5201C44.6498 38.8592 44.9348 39.1298 44.9348 39.606C44.9348 40.1508 44.5091 40.49 43.8272 40.49C43.2969 40.49 42.8495 40.2446 42.4599 39.873L42.0811 40.2987C42.4851 40.71 43.1093 41.0131 43.8092 41.0131C44.8807 41.0131 45.512 40.3853 45.512 39.5808C45.512 38.7763 45.1621 38.4335 44.022 38.0222L44.0184 38.0186Z" fill="white"/>
<path d="M47.8428 36.9935C47.3413 36.9935 46.8867 37.1162 46.5476 37.3002L46.7568 37.7476C47.0707 37.5636 47.4026 37.4517 47.8067 37.4517C48.3695 37.4517 48.6437 37.7295 48.6437 38.3068V38.7614C48.4164 38.6351 48.0664 38.5377 47.6804 38.5377C46.9192 38.5377 46.2048 38.9057 46.2048 39.7715C46.2048 40.7023 46.8362 41.0054 47.4351 41.0054C47.9907 41.0054 48.3695 40.7456 48.6437 40.4534V40.926H49.1921V38.2346C49.1921 37.3399 48.6725 36.9863 47.8428 36.9863V36.9935ZM48.6401 39.9844C48.4056 40.3055 48.0304 40.5616 47.5325 40.5616C47.0599 40.5616 46.7424 40.3127 46.7424 39.7391C46.7424 39.2556 47.0815 38.9814 47.6479 38.9814C48.1169 38.9814 48.3875 39.068 48.6401 39.2051V39.988V39.9844Z" fill="white"/>
<path d="M54.7263 38.6718V40.9302H55.2747V38.5816C55.2747 37.4559 54.7841 36.9941 53.9976 36.9941C53.3698 36.9941 53.0559 37.2864 52.8287 37.6544C52.6447 37.2864 52.3164 36.9941 51.7716 36.9941C51.317 36.9941 50.9923 37.2142 50.7939 37.5461V37.0771H50.2383V40.9338H50.7939V38.6754C50.7939 37.8203 51.1222 37.4704 51.6525 37.4704C52.1829 37.4704 52.4823 37.7915 52.4823 38.6754V40.9338H53.0343V38.6754C53.0343 37.8203 53.3698 37.4704 53.8929 37.4704C54.4485 37.4704 54.7227 37.7915 54.7227 38.6754L54.7263 38.6718Z" fill="white"/>
<path d="M57.4863 38.6859C56.8333 38.39 56.6385 38.2638 56.6385 37.9355C56.6385 37.6541 56.8694 37.4592 57.277 37.4592C57.6847 37.4592 57.9373 37.5675 58.2367 37.8056L58.5434 37.3979C58.2511 37.1562 57.8399 36.9902 57.3131 36.9902C56.6096 36.9902 56.1081 37.3871 56.1081 37.9715C56.1081 38.5885 56.4292 38.823 57.2049 39.1549C57.8867 39.4471 58.114 39.6239 58.114 39.9414C58.114 40.3166 57.8651 40.5367 57.3348 40.5367C56.9523 40.5367 56.5916 40.3815 56.2849 40.111L55.9602 40.5114C56.3282 40.8072 56.79 41.0057 57.3203 41.0057C57.9878 41.0057 58.6408 40.6774 58.6408 39.9161C58.6408 39.227 58.2151 39.0142 57.4827 38.6823L57.4863 38.6859Z" fill="white"/>
<path d="M61.8589 39.3281C61.8589 40.1723 61.4368 40.5295 60.9065 40.5295C60.2859 40.5295 59.9937 40.1579 59.9937 39.3281V37.0732H59.4453V39.4219C59.4453 40.5295 59.9829 41.0093 60.7946 41.0093C61.2817 41.0093 61.6388 40.782 61.8589 40.4573V40.9299H62.4109V37.0732H61.8589V39.3281Z" fill="white"/>
<path d="M66.3071 40.9302V38.5816C66.3071 37.4704 65.7695 36.9941 64.9542 36.9941C64.4707 36.9941 64.11 37.2214 63.8935 37.5461V37.0771H63.3379V40.9338H63.8935V38.6754C63.8935 37.8311 64.3084 37.4704 64.8423 37.4704C65.4593 37.4704 65.7551 37.8456 65.7551 38.6754V40.9338H66.3071V40.9302Z" fill="white"/>
<path d="M68.0426 41.9257L68.2193 42.3442C69.6516 42.3009 70.1711 41.7417 70.1711 40.58V37.0696H69.6192V37.5025C69.3486 37.1923 69.0167 36.9902 68.5332 36.9902C67.7251 36.9902 67.0757 37.6937 67.0757 39.0611C67.0757 40.4284 67.689 41.0057 68.4575 41.0057C68.9806 41.0057 69.3486 40.7459 69.6192 40.4537V40.6521C69.6192 41.5504 69.3269 41.8896 68.039 41.922L68.0426 41.9257ZM68.6018 40.5294C67.9921 40.5294 67.6241 40.0244 67.6241 39.0539C67.6241 38.0184 67.9379 37.4665 68.5801 37.4665C69.0383 37.4665 69.4099 37.7226 69.6228 38.0437V39.9739C69.3522 40.313 69.0131 40.5294 68.6018 40.5294Z" fill="white"/>
<path d="M76.2538 38.3214C76.2538 36.5572 75.258 35.7852 73.9087 35.7852H72.5486V40.9298H73.8077C75.1823 40.9298 76.2538 40.1866 76.2538 38.3214ZM73.1222 36.3047H73.8654C75.0488 36.3047 75.6801 37.0262 75.6801 38.3395C75.6801 39.8186 74.9874 40.4067 73.8798 40.4067H73.1222V36.3047Z" fill="white"/>
<path d="M77.7222 37.55V37.0738H77.1702V40.9305H77.7222V38.6648C77.7222 37.9288 78.0252 37.4995 78.5628 37.4995C78.8189 37.4995 78.9849 37.5572 79.14 37.6474L79.2771 37.0918C79.1472 37.0341 78.9632 36.998 78.6746 36.998C78.2597 36.998 77.8953 37.247 77.7222 37.5536V37.55Z" fill="white"/>
<path d="M82.5747 40.5625L82.3149 40.1657C81.9614 40.4002 81.698 40.5337 81.247 40.5337C80.6193 40.5337 80.226 40.0105 80.1755 39.1916H82.7443C82.7623 39.1014 82.7695 39.022 82.7695 38.8921C82.7695 37.7918 82.2211 36.998 81.2146 36.998C80.2982 36.998 79.6235 37.7593 79.6235 38.9823C79.6235 40.5012 80.4822 41.0135 81.1893 41.0135C81.7702 41.0135 82.1093 40.8584 82.5747 40.5661V40.5625ZM81.2146 37.4707C81.8892 37.4707 82.2139 37.9938 82.2572 38.7406H80.1755C80.2405 37.8783 80.6409 37.4707 81.2146 37.4707Z" fill="white"/>
<path d="M84.6095 41.0093C85.1615 41.0093 85.5403 40.7495 85.8109 40.4573V40.9299H86.3629V38.2385C86.3629 37.3438 85.8433 36.9902 85.0135 36.9902C84.5121 36.9902 84.0575 37.1129 83.7184 37.2969L83.924 37.7443C84.2415 37.5603 84.5698 37.4484 84.9739 37.4484C85.5403 37.4484 85.8109 37.7262 85.8109 38.3035V38.758C85.5836 38.6318 85.2372 38.5344 84.8512 38.5344C84.0864 38.5344 83.3684 38.9024 83.3684 39.7682C83.3684 40.699 84.0034 41.0021 84.6059 41.0021L84.6095 41.0093ZM84.8223 38.9781C85.2913 38.9781 85.5655 39.0647 85.8145 39.2018V39.9847C85.58 40.3058 85.2048 40.5619 84.7069 40.5619C84.2379 40.5619 83.9168 40.313 83.9168 39.7394C83.9168 39.2559 84.2595 38.9817 84.8223 38.9817V38.9781Z" fill="white"/>
<path d="M91.897 38.6718V40.9302H92.449V38.5816C92.449 37.4559 91.9583 36.9941 91.1718 36.9941C90.5477 36.9941 90.2302 37.2864 90.0065 37.6544C89.8225 37.2864 89.4942 36.9941 88.9494 36.9941C88.4912 36.9941 88.1701 37.2142 87.9717 37.5461V37.0771H87.4233V40.9338H87.9717V38.6754C87.9717 37.8203 88.3036 37.4704 88.834 37.4704C89.3643 37.4704 89.6674 37.7915 89.6674 38.6754V40.9338H90.2157V38.6754C90.2157 37.8203 90.5513 37.4704 91.078 37.4704C91.6336 37.4704 91.9078 37.7915 91.9078 38.6754L91.897 38.6718Z" fill="white"/>
<path d="M44.0184 45.6713C42.9866 45.3033 42.799 45.0616 42.799 44.6358C42.799 44.2101 43.0948 43.8818 43.7984 43.8818C44.3143 43.8818 44.6606 44.0478 45.0322 44.358L45.4002 43.9107C44.9673 43.5679 44.5235 43.3623 43.8344 43.3623C42.8712 43.3623 42.2254 43.8457 42.2254 44.6755C42.2254 45.4187 42.6006 45.7759 43.7118 46.1728C44.6534 46.5155 44.9384 46.7825 44.9384 47.2623C44.9384 47.8035 44.5127 48.1426 43.8272 48.1426C43.2969 48.1426 42.8495 47.8973 42.4599 47.5257L42.0811 47.9514C42.4851 48.3627 43.1093 48.6621 43.8092 48.6621C44.8807 48.6621 45.5084 48.038 45.5084 47.2298C45.5084 46.4217 45.1585 46.0826 44.022 45.6713H44.0184Z" fill="white"/>
<path d="M47.8498 45.1224C48.2394 45.1224 48.4956 45.2595 48.7733 45.5121L49.1053 45.1008C48.8022 44.8338 48.4017 44.6426 47.8858 44.6426C47.0777 44.6426 46.2227 45.2451 46.2227 46.6701C46.2227 48.0158 46.9983 48.658 47.8462 48.658C48.3873 48.658 48.7625 48.4524 49.0872 48.1205L48.7553 47.7705C48.4919 48.0267 48.243 48.1782 47.8678 48.1782C47.1859 48.1782 46.7783 47.5685 46.7783 46.6196C46.7783 45.6708 47.2437 45.1152 47.8462 45.1152L47.8498 45.1224Z" fill="white"/>
<path d="M51.4612 44.6458C50.9778 44.6458 50.6134 44.8731 50.3933 45.1978V43.3867H49.845V48.5891H50.3933V46.3307C50.3933 45.4864 50.8155 45.1257 51.3494 45.1257C51.9699 45.1257 52.2622 45.4973 52.2622 46.3307V48.5891H52.8142V46.2332C52.8142 45.1257 52.2766 44.6458 51.4612 44.6458Z" fill="white"/>
<path d="M55.2747 44.6465C54.3367 44.6465 53.5898 45.35 53.5898 46.6596C53.5898 47.9692 54.3078 48.6655 55.2458 48.6655C56.1838 48.6655 56.9379 47.9404 56.9379 46.6308C56.9379 45.3211 56.2127 44.6465 55.2747 44.6465ZM55.2638 48.1857C54.5928 48.1857 54.1418 47.659 54.1418 46.6452C54.1418 45.6314 54.5928 45.1263 55.2638 45.1263C55.9349 45.1263 56.3859 45.6314 56.3859 46.6452C56.3859 47.659 55.9313 48.1857 55.2638 48.1857Z" fill="white"/>
<path d="M58.3196 43.3838H57.7676V48.5862H58.3196V43.3838Z" fill="white"/>
<path d="M60.8413 44.6465C60.3399 44.6465 59.8853 44.7728 59.5498 44.9568L59.7554 45.4077C60.0729 45.2237 60.4048 45.1119 60.8089 45.1119C61.3717 45.1119 61.6459 45.3933 61.6459 45.9633V46.4215C61.4186 46.2952 61.0722 46.1978 60.6862 46.1978C59.9214 46.1978 59.207 46.5658 59.207 47.4353C59.207 48.3661 59.8384 48.6655 60.4409 48.6655C60.9929 48.6655 61.3717 48.4094 61.6459 48.1172V48.5898H62.1979V45.902C62.1979 45 61.6747 44.6501 60.845 44.6501L60.8413 44.6465ZM61.6423 47.6373C61.4114 47.9548 61.0289 48.2146 60.5347 48.2146C60.0657 48.2146 59.7482 47.9656 59.7482 47.392C59.7482 46.9049 60.0873 46.638 60.6537 46.638C61.1228 46.638 61.3933 46.7173 61.6423 46.858V47.6373Z" fill="white"/>
<path d="M63.7961 45.2051V44.7216H63.2441V48.582H63.7961V46.3163C63.7961 45.5839 64.092 45.1474 64.6331 45.1474C64.8929 45.1474 65.0588 45.2051 65.214 45.2953L65.3547 44.7361C65.2212 44.6784 65.0408 44.6387 64.7522 44.6387C64.3409 44.6387 63.9693 44.8876 63.7997 45.2015L63.7961 45.2051Z" fill="white"/>
<path d="M67.4689 46.3421C66.8159 46.0463 66.6175 45.9128 66.6175 45.5917C66.6175 45.3139 66.852 45.1155 67.256 45.1155C67.6601 45.1155 67.9199 45.2273 68.2193 45.4618L68.526 45.0578C68.2301 44.816 67.8225 44.6465 67.2921 44.6465C66.5922 44.6465 66.0835 45.0433 66.0835 45.6314C66.0835 46.2195 66.4082 46.4828 67.1803 46.8111C67.8621 47.1034 68.0894 47.2838 68.0894 47.5976C68.0894 47.9764 67.8405 48.1929 67.3138 48.1929C66.9277 48.1929 66.5706 48.0378 66.2603 47.7672L65.9392 48.1713C66.3072 48.4671 66.769 48.6619 67.2993 48.6619C67.9668 48.6619 68.6198 48.33 68.6198 47.576C68.6198 46.8833 68.1941 46.674 67.4653 46.3421H67.4689Z" fill="white"/>
<path d="M71.1379 44.6458C70.6473 44.6458 70.2901 44.8731 70.0701 45.1978V43.3867H69.5181V48.5891H70.0701V46.3307C70.0701 45.4864 70.4886 45.1257 71.0261 45.1257C71.643 45.1257 71.9353 45.4973 71.9353 46.3307V48.5891H72.4873V46.2332C72.4873 45.1257 71.9533 44.6458 71.1379 44.6458Z" fill="white"/>
<path d="M74.1253 44.7217H73.5769V48.582H74.1253V44.7217Z" fill="white"/>
<path d="M73.8619 43.25C73.6382 43.25 73.4614 43.4268 73.4614 43.6505C73.4614 43.8741 73.6382 44.0401 73.8619 44.0401C74.0675 44.0401 74.2443 43.8597 74.2443 43.6505C74.2443 43.4268 74.0675 43.25 73.8619 43.25Z" fill="white"/>
<path d="M76.95 44.6465C76.4305 44.6465 76.0625 44.9062 75.7883 45.1985V44.7259H75.2363V50.004H75.7883V48.1532C76.0589 48.4599 76.3908 48.6655 76.8779 48.6655C77.6824 48.6655 78.3318 47.9584 78.3318 46.5947C78.3318 45.2309 77.7185 44.6465 76.95 44.6465ZM76.831 48.1857C76.3764 48.1857 76.0012 47.9295 75.7883 47.6048V45.6783C76.0589 45.3428 76.398 45.1227 76.8093 45.1227C77.4226 45.1227 77.7906 45.6278 77.7906 46.5983C77.7906 47.6337 77.4731 48.1821 76.8346 48.1821L76.831 48.1857Z" fill="white"/>
<path d="M81.2506 43.9609H83.6967V43.4414H80.677V48.5861H81.2506V46.1869H82.6613V45.6674H81.2506V43.9609Z" fill="white"/>
<path d="M85.3706 44.6465C84.4325 44.6465 83.6821 45.35 83.6821 46.6596C83.6821 47.9692 84.4037 48.6655 85.3417 48.6655C86.2797 48.6655 87.0337 47.9404 87.0337 46.6308C87.0337 45.3211 86.3158 44.6465 85.3706 44.6465ZM85.3597 48.1857C84.6887 48.1857 84.2449 47.659 84.2449 46.6452C84.2449 45.6314 84.6923 45.1263 85.3597 45.1263C86.0272 45.1263 86.4854 45.6314 86.4854 46.6452C86.4854 47.659 86.0308 48.1857 85.3597 48.1857Z" fill="white"/>
<path d="M90.0752 46.9801C90.0752 47.8244 89.6603 48.1851 89.1228 48.1851C88.5058 48.1851 88.21 47.8135 88.21 46.9801V44.7217H87.6616V47.0739C87.6616 48.1815 88.1992 48.6614 89.0145 48.6614C89.4944 48.6614 89.8551 48.4377 90.0752 48.113V48.5856H90.6308V44.7253H90.0752V46.9837V46.9801Z" fill="white"/>
<path d="M93.1707 44.6462C92.6873 44.6462 92.3265 44.8735 92.1064 45.1982V44.7256H91.5544V48.5859H92.1064V46.3274C92.1064 45.4832 92.5249 45.1224 93.0625 45.1224C93.6794 45.1224 93.9716 45.494 93.9716 46.3274V48.5859H94.5236V46.23C94.5236 45.1224 93.9861 44.6426 93.1707 44.6426V44.6462Z" fill="white"/>
<path d="M97.8391 45.1624C97.5649 44.8521 97.2366 44.6429 96.7496 44.6429C95.9414 44.6429 95.2957 45.3464 95.2957 46.7174C95.2957 48.0883 95.9054 48.6619 96.6774 48.6619C97.2005 48.6619 97.5649 48.4058 97.8355 48.1136V48.5862H98.3875V43.3838H97.8355V45.1624H97.8391ZM97.8391 47.6301C97.5649 47.9657 97.2294 48.1857 96.8181 48.1857C96.2084 48.1857 95.8404 47.6806 95.8404 46.7101C95.8404 45.6711 96.1543 45.1227 96.7965 45.1227C97.2511 45.1227 97.6227 45.3789 97.8391 45.7036V47.6265V47.6301Z" fill="white"/>
<path d="M100.725 44.6465C100.227 44.6465 99.7728 44.7728 99.4337 44.9568L99.6357 45.4077C99.9532 45.2237 100.285 45.1119 100.689 45.1119C101.252 45.1119 101.523 45.3933 101.523 45.9633V46.4215C101.295 46.2952 100.949 46.1978 100.559 46.1978C99.7981 46.1978 99.0837 46.5658 99.0837 47.4353C99.0837 48.3661 99.7187 48.6655 100.321 48.6655C100.873 48.6655 101.252 48.4094 101.523 48.1172V48.5898H102.075V45.902C102.075 45 101.555 44.6501 100.722 44.6501L100.725 44.6465ZM101.526 47.6373C101.292 47.9548 100.92 48.2146 100.415 48.2146C99.9496 48.2146 99.6357 47.9656 99.6357 47.392C99.6357 46.9049 99.9712 46.638 100.538 46.638C101.007 46.638 101.281 46.7173 101.526 46.858V47.6373Z" fill="white"/>
<path d="M103.835 43.3838H103.279V44.7223H102.803V45.1877H103.279V47.7889C103.279 48.4274 103.539 48.6583 104.019 48.6583C104.308 48.6583 104.513 48.615 104.726 48.5285L104.766 48.0522C104.589 48.1244 104.445 48.1605 104.221 48.1605C103.929 48.1605 103.835 48.0414 103.835 47.6987V45.1877H104.791V44.7223H103.835V43.3838Z" fill="white"/>
<path d="M106.043 43.25C105.816 43.25 105.635 43.4268 105.635 43.6505C105.635 43.8741 105.816 44.0401 106.043 44.0401C106.249 44.0401 106.422 43.8597 106.422 43.6505C106.422 43.4268 106.245 43.25 106.043 43.25Z" fill="white"/>
<path d="M106.306 44.7217H105.754V48.582H106.306V44.7217Z" fill="white"/>
<path d="M108.825 44.6465C107.887 44.6465 107.136 45.35 107.136 46.6596C107.136 47.9692 107.854 48.6655 108.796 48.6655C109.737 48.6655 110.484 47.9404 110.484 46.6308C110.484 45.3211 109.763 44.6465 108.825 44.6465ZM108.81 48.1857C108.143 48.1857 107.692 47.659 107.692 46.6452C107.692 45.6314 108.143 45.1263 108.81 45.1263C109.478 45.1263 109.936 45.6314 109.936 46.6452C109.936 47.659 109.481 48.1857 108.81 48.1857Z" fill="white"/>
<path d="M112.898 44.6462C112.415 44.6462 112.054 44.8735 111.83 45.1982V44.7256H111.278V48.5859H111.83V46.3274C111.83 45.4832 112.249 45.1224 112.786 45.1224C113.403 45.1224 113.699 45.494 113.699 46.3274V48.5859H114.247V46.23C114.247 45.1224 113.71 44.6426 112.898 44.6426V44.6462Z" fill="white"/>
<path d="M63.3053 25.6582C61.0902 25.6618 59.2646 27.3935 59.2646 29.5654C59.2646 31.7373 61.0902 33.451 63.3053 33.4582C65.5422 33.451 67.3496 31.7156 67.3496 29.5654C67.3496 27.4152 65.5422 25.6618 63.3053 25.6582ZM63.2512 31.676C62.0931 31.676 61.2201 30.7307 61.2201 29.5654C61.2201 28.4001 62.1545 27.4368 63.3089 27.4368C64.4634 27.4368 65.3654 28.3821 65.3654 29.5654C65.3654 30.7488 64.4201 31.676 63.2548 31.676H63.2512Z" fill="white"/>
<path d="M44.7651 22.9704C45.3821 23.5801 46.0892 24.114 46.7855 24.4568L46.8576 24.4964L48.0518 23.0858L47.9364 23.0209C46.8035 22.4076 45.916 21.6319 45.3352 20.6542C44.7579 19.6909 44.4621 18.5725 44.4621 17.234V15.9785H42.3263V17.1005C42.3263 18.5509 41.998 19.6909 41.3811 20.6903C40.692 21.7978 39.671 22.689 38.365 23.5151L38.2495 23.5873L39.5447 24.9294L39.6169 24.8897C40.3889 24.4712 41.2079 23.8254 41.9186 23.1038C42.5355 22.4725 43.0695 21.7978 43.3942 21.1593C43.7081 21.787 44.1879 22.4256 44.7651 22.974V22.9704Z" fill="white"/>
<path d="M42.4526 32.5347H51.3927V26.4268H42.4526V32.5347ZM44.4622 28.1513H49.3832V30.8102H44.4622V28.1513Z" fill="white"/>
<path d="M72.26 32.5347H82.369V26.4268H72.26V32.5347ZM74.2479 28.1513H80.3847V30.8102H74.2479V28.1513Z" fill="white"/>
<path d="M51.4286 15.6182H49.4407V25.7271H51.4286V21.2535H53.7556V19.4568H51.4286V15.6182Z" fill="white"/>
<path d="M92.6438 23.4861C93.2968 24.0525 94.0436 24.5287 94.7471 24.8354L94.8193 24.8678L95.8944 23.4139L95.779 23.3562C94.7543 22.8331 93.8416 22.1837 93.185 21.39C92.5175 20.5818 92.1207 19.6077 92.1207 18.4352V18.0925H95.079V16.3535H87.0482V18.0925H90.0029V18.511C90.0029 19.5789 89.6494 20.5746 89.0613 21.4369C88.3722 22.4723 87.3656 23.3057 86.3879 23.8468L86.2581 23.9154L87.5785 25.2827L87.6507 25.2467C88.3614 24.8426 89.1479 24.2329 89.8189 23.5474C90.3565 22.9846 90.8399 22.3893 91.1358 21.794C91.4929 22.3713 92.0413 22.9485 92.6474 23.4861H92.6438Z" fill="white"/>
<path d="M107.021 28.1903H114.247V32.5305H116.253V26.4658H107.021V28.1903Z" fill="white"/>
<path d="M112.007 21.2386C112.007 20.2825 111.577 19.4022 110.942 18.7312H112.927V17.0103H109.138V15.1162H106.985V17.0103H103.106V18.7312H105.134C104.513 19.4022 104.084 20.2753 104.084 21.2386C104.084 23.3708 105.841 25.1025 108.038 25.1097C110.235 25.1025 112.003 23.3708 112.007 21.2386ZM106 21.1592C106 19.9795 106.995 18.9801 108.038 18.9801C109.081 18.9801 110.073 19.9831 110.076 21.1592C110.076 22.3209 109.081 23.3239 108.038 23.3275C106.992 23.3239 106.003 22.3209 106 21.1592Z" fill="white"/>
<path d="M116.253 15.6182H114.269V25.7632H116.253V21.8921H118.587V20.0954H116.253V15.6182Z" fill="white"/>
<path d="M99.4154 15.6182H97.4312V25.7632H99.4154V21.2535H101.746V19.4568H99.4154V15.6182Z" fill="white"/>
<path d="M65.7335 18.627H62.6091V20.4057H65.7335V26.0843H67.7213V15.6182H65.7335V18.627Z" fill="white"/>
<path d="M60.6861 23.2337C61.3066 23.8398 62.0318 24.3738 62.7245 24.7346L62.8003 24.7779L63.9944 23.3672L63.879 23.3023C62.7461 22.707 61.8767 21.9349 61.2922 20.9717C60.7005 20.0156 60.4047 18.8539 60.4047 17.5154V15.9785H58.2653V17.3855C58.2653 18.8359 57.9406 19.9723 57.3381 20.9536C56.6526 22.0792 55.61 22.9776 54.304 23.7965L54.1921 23.8687L55.4945 25.2144L55.5595 25.1711C56.3279 24.749 57.1289 24.1393 57.8396 23.443C58.4818 22.8044 59.0157 22.1081 59.3404 21.4407C59.6471 22.0504 60.1161 22.6709 60.6861 23.2373V23.2337Z" fill="white"/>
<path d="M95.1547 25.6582C92.9395 25.6618 91.114 27.3935 91.1104 29.5654C91.114 31.7156 92.9359 33.451 95.1547 33.4582C97.3879 33.451 99.199 31.7156 99.199 29.5654C99.199 27.4152 97.3879 25.6618 95.1547 25.6582ZM95.0969 31.676C93.9424 31.676 93.0622 30.7307 93.0622 29.5654C93.0622 28.4001 93.993 27.4368 95.1547 27.4368C96.3164 27.4368 97.2075 28.3821 97.2111 29.5654C97.2111 30.7271 96.2622 31.676 95.0969 31.676Z" fill="white"/>
<path d="M74.6808 21.4156H76.6687V16.2529H71.304V17.9702H74.6808V21.4156Z" fill="white"/>
<path d="M80.6479 21.4156H82.6394V16.2529H77.2747V17.9702H80.6479V21.4156Z" fill="white"/>
<path d="M131.319 20.1892H129.649V15.8996H127.769V32.0984H129.649V22.1374H131.319V32.5314H133.267V15.6182H131.319V20.1892Z" fill="white"/>
<path d="M125.013 22.4291C124.565 21.4514 124.381 20.3582 124.381 19.0162V18.3776H126.636V16.5557H120.085V18.3776H122.412V19.0522C122.412 20.3222 122.246 21.3612 121.845 22.3245C121.38 23.4321 120.597 24.4278 119.349 25.4957L119.262 25.5751L120.496 26.7981L120.572 26.7404C121.192 26.2822 121.842 25.6184 122.383 24.9329C122.841 24.3557 123.227 23.7568 123.469 23.23C123.718 23.7423 124.107 24.3304 124.562 24.8788C125.089 25.521 125.684 26.1307 126.254 26.4951L126.33 26.5456L127.369 25.3045L127.286 25.2287C126.167 24.2546 125.475 23.3852 125.02 22.4255L125.013 22.4291Z" fill="white"/>
<path d="M69.6406 23.818H76.2392V25.7445H78.3931V23.818H85.0963V22.0898H69.6406V23.818Z" fill="white"/>
<path d="M144.585 23.266H137.867V18.1538H142.983V16.3535H135.854V25.0121H144.585V23.266Z" fill="white"/>
<path d="M140.786 27.1406H138.776V32.5306H148.175V30.7556H140.786V27.1406Z" fill="white"/>
<path d="M148.128 20.3007V15.6143H146.143V28.0935H148.128V22.0974H150.476V20.3007H148.128Z" fill="white"/>
<path d="M42.1423 10.3976L36.9941 8.26539L42.1423 6.1332L41.226 3.92886L36.0813 6.06104L38.2135 0.912764L36.0055 0L33.877 5.14828L31.7448 0L29.5368 0.912764L31.669 6.06104L26.5243 3.92886L25.6116 6.1332L30.7562 8.26539L25.6116 10.3976L26.5243 12.6019L31.669 10.4697L29.5368 15.618L31.7448 16.5308L33.877 11.3861L36.0055 16.5308L38.2135 15.6144L36.0813 10.4697L41.226 12.6019L42.1423 10.3976Z" fill="white"/>
<path d="M8.83177 24.7602H12.2555V15.6182H0.54834V18.6992H8.83177V24.7602Z" fill="white"/>
<path d="M22.1877 24.7602H25.6115V15.6182H13.9043V18.6992H22.1877V24.7602Z" fill="white"/>
<path d="M0 29.4902H22.1877V34.1983H25.6115V26.4092H0V29.4902Z" fill="white"/>
<path d="M8.28345 48.5862H25.6115V35.7822H8.28345V48.5862ZM11.7036 38.8669H22.1878V45.5088H11.7036V38.8669Z" fill="white"/>
</g>
<defs>
<clipPath id="clip0_16_292">
<rect width="150.476" height="50" fill="white"/>
</clipPath>
</defs>
</svg>
