<svg width="55" height="55" viewBox="0 0 55 55" fill="none" xmlns="http://www.w3.org/2000/svg">
<path d="M49.1423 13.3976L43.9941 11.2654L49.1423 9.1332L48.226 6.92886L43.0813 9.06104L45.2135 3.91276L43.0055 3L40.877 8.14828L38.7448 3L36.5368 3.91276L38.669 9.06104L33.5243 6.92886L32.6116 9.1332L37.7562 11.2654L32.6116 13.3976L33.5243 15.6019L38.669 13.4697L36.5368 18.618L38.7448 19.5308L40.877 14.3861L43.0055 19.5308L45.2135 18.6144L43.0813 13.4697L48.226 15.6019L49.1423 13.3976Z" fill="#00A1E0"/>
<path d="M15.8318 27.7602H19.2555V18.6182H7.54834V21.6992H15.8318V27.7602Z" fill="#00A1E0"/>
<path d="M29.1877 27.7602H32.6115V18.6182H20.9043V21.6992H29.1877V27.7602Z" fill="#00A1E0"/>
<path d="M7 32.4902H29.1877V37.1983H32.6115V29.4092H7V32.4902Z" fill="#00A1E0"/>
<path d="M15.2834 51.5862H32.6115V38.7822H15.2834V51.5862ZM18.7036 41.8669H29.1878V48.5088H18.7036V41.8669Z" fill="#00A1E0"/>
</svg>
