<svg width="21" height="21" viewBox="0 0 21 21" fill="none" xmlns="http://www.w3.org/2000/svg">
<path d="M11.025 10.5L7.61245 7.08745C7.45203 6.92703 7.37183 6.72287 7.37183 6.47495C7.37183 6.22703 7.45203 6.02287 7.61245 5.86245C7.77287 5.70203 7.97703 5.62183 8.22495 5.62183C8.47287 5.62183 8.67703 5.70203 8.83745 5.86245L12.8625 9.88745C12.95 9.97495 13.0119 10.0697 13.0484 10.1718C13.0848 10.2739 13.1031 10.3833 13.1031 10.5C13.1031 10.6166 13.0848 10.726 13.0484 10.8281C13.0119 10.9302 12.95 11.025 12.8625 11.1125L8.83745 15.1375C8.67703 15.2979 8.47287 15.3781 8.22495 15.3781C7.97703 15.3781 7.77287 15.2979 7.61245 15.1375C7.45203 14.977 7.37183 14.7729 7.37183 14.525C7.37183 14.277 7.45203 14.0729 7.61245 13.9125L11.025 10.5Z" fill="#B8B8B8"/>
</svg>
