<svg width="666" height="240" viewBox="0 0 666 240" fill="none" xmlns="http://www.w3.org/2000/svg">
<path d="M551.747 175.971C551.731 178.412 551.202 180.707 550.16 182.855C549.135 184.988 547.711 186.843 545.888 188.422C544.065 190.001 542.006 191.197 539.711 192.011L538.173 189.618C540.24 188.902 542.104 187.86 543.764 186.493C545.44 185.11 546.758 183.515 547.719 181.708C548.695 179.885 549.184 177.973 549.184 175.971V174.018H551.747V175.971ZM552.211 175.971C552.211 177.81 552.715 179.568 553.725 181.244C554.734 182.904 556.093 184.369 557.802 185.639C559.511 186.892 561.399 187.828 563.466 188.446L561.952 190.863C559.625 190.131 557.533 189.04 555.678 187.592C553.822 186.143 552.357 184.418 551.283 182.416C550.225 180.414 549.696 178.266 549.696 175.971V174.018H552.211V175.971ZM562.27 174.75H539.125V172.211H562.27V174.75ZM552.284 173.041H549.184V166.498H552.284V173.041ZM571.303 181.903H560.878V179.291H571.303V181.903ZM573.402 192.841H570.302V166.718H573.402V192.841ZM559.267 194.135C562.213 194.135 564.76 194.436 566.908 195.038C569.057 195.624 570.701 196.511 571.84 197.699C572.979 198.871 573.549 200.271 573.549 201.898C573.549 203.526 572.979 204.918 571.84 206.073C570.701 207.245 569.057 208.132 566.908 208.734C564.76 209.353 562.213 209.662 559.267 209.662C556.288 209.662 553.733 209.353 551.601 208.734C549.468 208.132 547.825 207.245 546.669 206.073C545.513 204.918 544.944 203.526 544.96 201.898C544.944 200.271 545.513 198.871 546.669 197.699C547.825 196.511 549.468 195.624 551.601 195.038C553.733 194.436 556.288 194.135 559.267 194.135ZM559.267 196.601C556.972 196.601 554.978 196.812 553.285 197.235C551.592 197.659 550.282 198.277 549.354 199.091C548.443 199.888 547.987 200.824 547.987 201.898C547.987 202.973 548.443 203.909 549.354 204.706C550.282 205.504 551.592 206.114 553.285 206.537C554.978 206.96 556.972 207.172 559.267 207.172C561.529 207.172 563.507 206.96 565.199 206.537C566.908 206.114 568.218 205.504 569.13 204.706C570.058 203.909 570.521 202.973 570.521 201.898C570.521 200.824 570.058 199.888 569.13 199.091C568.218 198.277 566.916 197.659 565.224 197.235C563.531 196.812 561.545 196.601 559.267 196.601ZM594.74 174.896C594.74 177.615 594.228 180.146 593.202 182.489C592.193 184.817 590.785 186.843 588.979 188.568C587.188 190.277 585.129 191.596 582.802 192.523L581.117 190.009C583.233 189.244 585.129 188.113 586.806 186.615C588.482 185.102 589.792 183.344 590.736 181.342C591.697 179.324 592.177 177.175 592.177 174.896V169.354H594.74V174.896ZM595.155 175.092C595.155 177.061 595.644 178.965 596.62 180.805C597.597 182.628 598.923 184.247 600.6 185.663C602.276 187.063 604.14 188.129 606.19 188.861L604.652 191.376C602.357 190.513 600.307 189.268 598.5 187.641C596.693 185.997 595.269 184.101 594.228 181.952C593.186 179.787 592.665 177.501 592.665 175.092V169.354H595.155V175.092ZM614.638 198.627H611.586V166.693H614.638V198.627ZM621.327 182.831H613.612V180.17H621.327V182.831ZM616.737 208.783H588.075V206.171H616.737V208.783ZM591.2 207.367H588.075V195.575H591.2V207.367ZM659.022 189.765H629.481V187.201H659.022V189.765ZM663.783 204.193H624.33V201.557H663.783V204.193ZM645.424 202.753H642.421V188.275H645.424V202.753ZM658.559 172.943H632.582V188.422H629.481V170.38H658.559V172.943Z" fill="white"/>
<path d="M396.4 51.6V88L429.8 112.8C432 114.4 432.2 116.4 430.8 118L424.8 125.8C423.4 127.4 421.8 127.4 420.4 126.2L388.6 102.8L356.8 126.4C355.4 127.6 353.8 127.6 352.4 126L346.2 118C344.8 116.4 345.4 114.8 347.4 113L380.6 88.4V51.6C380.6 49 381.4 47.8 384 47.8H393C395.6 47.8 396.4 49 396.4 51.6ZM474.4 127.6C474.4 129.6 473.6 131.4 471.4 131.4H461.6C459.4 131.4 458.6 129.8 458.6 127.6V85.6H427.2C425.2 85.6 423.8 84.4 423.8 82.6V73.2C423.8 71.4 425.2 70 427 70H458.6V46C458.6 43.4 459.4 42.2 462 42.2H471C473.6 42.2 474.4 43.4 474.4 46V127.6ZM415 158.4V193.2H458.2V158.4H415ZM470.2 208.4H402.8C400.2 208.4 399 207 399 204.6V147C399 144.4 399.8 143.2 402.4 143.2H470.6C473.2 143.2 474 144.4 474 147V204.6C474 207 472.8 208.4 470.2 208.4Z" fill="white"/>
<path d="M15.4541 172.26C15.4541 174.929 14.9333 177.395 13.8916 179.657C12.8662 181.92 11.4339 183.889 9.59473 185.565C7.77181 187.226 5.69661 188.503 3.36914 189.398L1.75781 186.908C3.88997 186.127 5.79427 185.02 7.4707 183.588C9.16341 182.139 10.4899 180.447 11.4502 178.51C12.4268 176.557 12.915 174.473 12.915 172.26V168.476H15.4541V172.26ZM15.918 172.235C15.918 174.237 16.3981 176.117 17.3584 177.875C18.3187 179.617 19.6289 181.155 21.2891 182.489C22.9492 183.808 24.8372 184.817 26.9531 185.517L25.1953 187.934C22.9167 187.104 20.8903 185.932 19.1162 184.418C17.3421 182.888 15.9424 181.081 14.917 178.998C13.9079 176.915 13.4115 174.66 13.4277 172.235V168.476H15.918V172.235ZM35.4248 189.765H32.373V166.718H35.4248V189.765ZM42.1143 179.145H33.9844V176.508H42.1143V179.145ZM19.3115 201.508H8.88672V208.1H5.88379V199.14H16.333V194.55H5.76172V192.133H19.3115V201.508ZM35.4248 209.418H22.0947V192.133H35.4248V209.418ZM24.8779 206.977H32.666V194.501H24.8779V206.977ZM8.05664 206.903C11.1654 206.903 13.5335 206.854 15.1611 206.757C16.7887 206.659 18.5059 206.423 20.3125 206.049L20.6543 208.588C18.75 208.93 16.9434 209.141 15.2344 209.223C13.5254 209.32 11.1328 209.385 8.05664 209.418H5.88379V206.903H8.05664ZM59.2529 169.965C61.4665 169.965 63.444 170.38 65.1855 171.21C66.9434 172.04 68.3024 173.212 69.2627 174.726C70.2393 176.239 70.7275 177.973 70.7275 179.926C70.7275 181.879 70.2393 183.612 69.2627 185.126C68.3024 186.623 66.9434 187.795 65.1855 188.642C63.444 189.472 61.4665 189.887 59.2529 189.887C57.0068 189.887 55.0049 189.472 53.2471 188.642C51.5055 187.795 50.1465 186.623 49.1699 185.126C48.2096 183.612 47.7295 181.879 47.7295 179.926C47.7295 177.973 48.2096 176.239 49.1699 174.726C50.1465 173.212 51.5055 172.04 53.2471 171.21C55.0049 170.38 57.0068 169.965 59.2529 169.965ZM59.2529 172.675C57.609 172.675 56.1442 172.984 54.8584 173.603C53.5726 174.221 52.5635 175.084 51.8311 176.19C51.0986 177.297 50.7324 178.542 50.7324 179.926C50.7324 181.309 51.0986 182.554 51.8311 183.661C52.5635 184.752 53.5726 185.614 54.8584 186.249C56.1442 186.868 57.609 187.177 59.2529 187.177C60.8643 187.177 62.3128 186.868 63.5986 186.249C64.9007 185.614 65.9098 184.752 66.626 183.661C67.3584 182.554 67.7246 181.309 67.7246 179.926C67.7246 178.542 67.3584 177.297 66.626 176.19C65.9098 175.084 64.9007 174.221 63.5986 173.603C62.3128 172.984 60.8643 172.675 59.2529 172.675ZM80.1758 209.882H77.0996V166.718H80.1758V209.882ZM45.3613 197.455C50.8789 197.471 55.9814 197.39 60.6689 197.211C65.3727 197.032 69.8486 196.617 74.0967 195.966L74.3652 198.261C71.2891 198.83 68.0908 199.254 64.7705 199.53C61.4665 199.791 58.3822 199.962 55.5176 200.043C52.653 200.108 49.4303 200.141 45.8496 200.141L45.3613 197.455ZM137.134 210.004H106.763V194.965H137.134V210.004ZM112.915 204.999H131.006V199.896H112.915V204.999ZM118.091 196.625H111.743V187.812H118.091V196.625ZM137.134 193.012H130.933V166.107H137.134V193.012ZM99.9268 185.419C105.868 185.419 111.068 185.354 115.527 185.224C120.003 185.077 124.325 184.743 128.491 184.223L128.833 188.617C125.871 189.122 122.786 189.504 119.58 189.765C116.39 190.009 113.411 190.172 110.645 190.253C107.878 190.334 104.582 190.383 100.757 190.399H100.659L99.9268 185.419ZM116.724 169.159C116.707 171.487 116.235 173.619 115.308 175.556C114.396 177.493 112.996 179.153 111.108 180.536C109.22 181.92 106.909 182.929 104.175 183.563L101.44 178.827C103.735 178.355 105.648 177.631 107.178 176.654C108.724 175.678 109.871 174.555 110.62 173.285C111.369 171.999 111.743 170.624 111.743 169.159V167.353H116.724V169.159ZM118.164 169.159C118.164 170.51 118.53 171.788 119.263 172.992C120.011 174.18 121.134 175.23 122.632 176.142C124.146 177.037 126.009 177.72 128.223 178.192L125.537 182.782C122.852 182.229 120.581 181.301 118.726 179.999C116.886 178.697 115.495 177.126 114.551 175.287C113.623 173.432 113.167 171.389 113.184 169.159V167.353H118.164V169.159ZM159.424 202.24H153.149V190.18H159.424V202.24ZM173.413 202.313H167.188V190.229H173.413V202.313ZM183.716 205.561H143.091V200.58H183.716V205.561ZM180.322 174.604H146.24V169.599H180.322V174.604ZM180.127 192.133H146.46V187.104H180.127V192.133ZM158.618 187.86H152.393V173.725H158.618V187.86ZM174.072 187.86H167.944V173.725H174.072V187.86ZM220.02 209.809H216.919V166.718H220.02V209.809ZM227.271 187.201H219.189V184.589H227.271V187.201ZM208.96 171.43C208.944 175.531 208.236 179.429 206.836 183.124C205.452 186.802 203.28 190.204 200.317 193.329C197.355 196.454 193.612 199.132 189.087 201.361L187.378 198.92C191.414 196.918 194.816 194.534 197.583 191.767C200.35 189 202.425 185.948 203.809 182.611C205.208 179.258 205.916 175.686 205.933 171.894V171.43H208.96ZM207.52 174.066H189.258V171.43H207.52V174.066ZM267.871 188.275H245.874V185.663H267.871V188.275ZM258.105 197.968H255.029V187.689H258.105V197.968ZM267.676 173.456H248.877V186.713H245.874V170.893H267.676V173.456ZM277.246 209.882H274.17V166.718H277.246V209.882ZM242.432 197.479C247.803 197.479 252.881 197.398 257.666 197.235C262.451 197.056 266.951 196.715 271.167 196.21L271.436 198.554C268.424 198.993 265.275 199.327 261.987 199.555C258.716 199.783 255.518 199.945 252.393 200.043C249.268 200.141 246.11 200.181 242.92 200.165L242.432 197.479ZM320.19 182.733H290.869V180.194H320.19V182.733ZM324.78 191.571H285.352V188.983H324.78V191.571ZM293.921 181.488H290.869V168.305H293.921V181.488ZM320.435 208.71H290.649V206.098H320.435V208.71ZM293.701 206.854H290.649V196.234H293.701V206.854Z" fill="white"/>
<path d="M495.5 213L493.3 207.6C499.6 204.8 503.3 199.9 503.3 194C502.9 194.1 502.6 194.1 502.2 194.1C498.7 194.1 495.5 191.9 495.5 187.7C495.5 183.8 498.7 181.3 502.4 181.3C507.2 181.3 510.1 185.4 510.1 192.1C510.1 201.7 504.5 209.2 495.5 213Z" fill="white"/>
</svg>
